<svg xmlns="http://www.w3.org/2000/svg" viewBox="0 0 512 512">
  <defs>
    <linearGradient id="g" x1="0" y1="0" x2="1" y2="1">
      <stop offset="0" stop-color="#a855f7"/>
      <stop offset="0.6" stop-color="#e879f9"/>
      <stop offset="1" stop-color="#f0abfc"/>
    </linearGradient>
  </defs>
  <rect width="512" height="512" rx="112" fill="#08080c"/>
  <path d="M150 330c0 40 34 64 84 64 52 0 82-24 82-58 0-34-26-48-74-58-34-7-44-13-44-25 0-11 11-19 30-19 22 0 34 10 38 27l64-16c-9-40-44-65-100-65-54 0-92 28-92 68 0 36 25 51 73 61 36 8 45 14 45 26 0 12-13 20-34 20-26 0-40-12-43-33z" fill="url(#g)"/>
  <circle cx="360" cy="150" r="26" fill="url(#g)"/>
</svg>
